<svg width="155" height="32" viewBox="0 0 155 32" fill="none" xmlns="http://www.w3.org/2000/svg">
<path d="M7.16356 31.152C6.90756 31.024 6.55556 30.912 6.10756 30.816C5.65956 30.752 5.25956 30.672 4.90756 30.576C4.20356 30.32 3.67556 29.856 3.32356 29.184C3.00356 28.512 2.84356 27.696 2.84356 26.736C2.84356 25.456 3.05156 24 3.46756 22.368C3.91556 20.736 4.47556 19.056 5.14756 17.328C5.85156 15.568 6.58756 13.888 7.35556 12.288C8.12356 10.688 8.82756 9.264 9.46756 8.016C10.1396 6.768 10.6516 5.84 11.0036 5.232C9.94756 5.392 8.79556 5.648 7.54756 6C6.33156 6.32 5.29156 6.72 4.42756 7.2C3.56356 7.68 3.13156 8.256 3.13156 8.928C3.13156 9.568 3.53156 10.192 4.33156 10.8C4.58756 11.024 4.71556 11.232 4.71556 11.424C4.71556 11.712 4.57156 11.888 4.28356 11.952C4.18756 11.984 4.04356 12 3.85156 12C3.27556 12 2.71556 11.776 2.17156 11.328C1.65956 10.88 1.22756 10.288 0.875563 9.552C0.555563 8.784 0.395563 7.984 0.395563 7.152C0.395563 5.936 0.859563 4.736 1.78756 3.552C2.71556 2.368 4.34756 1.552 6.68356 1.104C7.25956 0.975999 8.39556 0.848 10.0916 0.719999C11.7876 0.559999 13.6276 0.48 15.6116 0.48C17.3716 0.48 19.0676 0.575999 20.6996 0.767999C22.3636 0.959998 23.7236 1.296 24.7796 1.776C25.8676 2.256 26.4116 2.944 26.4116 3.84C26.4116 4.064 26.3956 4.336 26.3636 4.656C26.3316 4.976 26.3156 5.232 26.3156 5.424V5.52C26.3156 5.648 26.2676 5.728 26.1716 5.76C26.0756 5.792 25.9956 5.744 25.9316 5.616C25.7716 5.36 25.3076 5.152 24.5396 4.992C23.8036 4.832 22.8596 4.72 21.7076 4.656C20.5876 4.592 19.3716 4.576 18.0596 4.608C17.2916 5.792 16.3956 7.264 15.3716 9.024C14.3796 10.784 13.3716 12.704 12.3476 14.784C11.4516 16.64 10.6196 18.528 9.85156 20.448C9.08356 22.336 8.45956 24.08 7.97956 25.68C7.53156 27.248 7.30756 28.512 7.30756 29.472C7.30756 30.048 7.40356 30.464 7.59556 30.72C7.65956 30.784 7.69156 30.88 7.69156 31.008C7.69156 31.232 7.51556 31.28 7.16356 31.152ZM19.4474 30.288C17.8794 30.288 16.7754 29.936 16.1354 29.232C15.5274 28.496 15.2234 27.584 15.2234 26.496C15.2234 25.344 15.4314 24.112 15.8474 22.8C16.2954 21.456 16.7914 20.224 17.3354 19.104C17.9114 17.952 18.3594 17.072 18.6794 16.464C19.9914 14.032 21.4954 12.256 23.1914 11.136C24.9194 10.016 26.8234 9.456 28.9034 9.456C29.6394 9.456 30.5034 9.488 31.4954 9.552C32.4874 9.616 33.4954 9.648 34.5194 9.648C35.0314 9.648 35.5274 9.632 36.0074 9.6C36.4874 9.568 36.9514 9.552 37.3994 9.552H37.5914C38.1354 9.552 38.4074 9.648 38.4074 9.84C38.4074 9.968 38.2154 10.112 37.8314 10.272C37.4154 10.432 36.9194 10.976 36.3434 11.904C35.7674 12.8 35.1754 13.888 34.5674 15.168C33.9594 16.448 33.3834 17.744 32.8394 19.056C32.5514 19.792 32.1674 20.784 31.6874 22.032C31.2074 23.248 30.8554 24.496 30.6314 25.776C30.5994 26 30.5674 26.208 30.5354 26.4C30.5354 26.56 30.5354 26.72 30.5354 26.88C30.5354 27.68 30.7434 28.08 31.1594 28.08C31.6714 28.08 32.1994 27.808 32.7434 27.264C33.2874 26.72 33.8154 26.064 34.3274 25.296C34.7754 24.624 35.2234 23.872 35.6714 23.04C36.1194 22.208 36.5194 21.44 36.8714 20.736C37.2234 20 37.4794 19.488 37.6394 19.2C37.7354 19.008 37.8634 18.912 38.0234 18.912C38.2154 18.912 38.3914 19.056 38.5514 19.344C38.7114 19.6 38.7274 19.856 38.5994 20.112C37.9914 21.296 37.3354 22.56 36.6314 23.904C35.9274 25.248 35.1594 26.464 34.3274 27.552C32.9194 29.376 31.2874 30.288 29.4314 30.288C28.0234 30.288 26.9834 29.856 26.3114 28.992C25.6714 28.128 25.3514 27.088 25.3514 25.872C25.3514 25.328 25.3994 24.8 25.4954 24.288C25.1434 24.864 24.7114 25.616 24.1994 26.544C23.6874 27.44 23.0954 28.256 22.4234 28.992C21.7834 29.728 21.0634 30.144 20.2634 30.24C20.1354 30.24 20.0074 30.24 19.8794 30.24C19.7514 30.272 19.6074 30.288 19.4474 30.288ZM21.2234 27.84C21.5434 27.84 21.9594 27.552 22.4714 26.976C23.0154 26.4 23.5594 25.68 24.1034 24.816C24.6794 23.92 25.1754 23.024 25.5914 22.128C25.6874 21.872 25.9114 21.328 26.2634 20.496C26.6474 19.632 27.0634 18.64 27.5114 17.52C27.9914 16.368 28.4714 15.216 28.9514 14.064C29.4314 12.912 29.8474 11.904 30.1994 11.04C30.2314 10.944 30.2474 10.832 30.2474 10.704C30.2474 10.512 30.1514 10.416 29.9594 10.416C29.7674 10.416 29.5434 10.496 29.2874 10.656C29.0314 10.784 28.7914 10.928 28.5674 11.088C28.1514 11.408 27.6074 12.08 26.9354 13.104C26.2954 14.096 25.6074 15.264 24.8714 16.608C24.1674 17.952 23.4954 19.328 22.8554 20.736C22.2154 22.112 21.6874 23.376 21.2714 24.528C20.8874 25.648 20.6954 26.496 20.6954 27.072C20.6954 27.584 20.8714 27.84 21.2234 27.84ZM41.7123 30.336C39.7603 30.336 38.1443 29.76 36.8643 28.608C35.5843 27.456 34.9443 25.856 34.9443 23.808C34.9443 23.104 35.0243 22.368 35.1843 21.6C35.3443 20.832 35.6003 20.176 35.9523 19.632C36.3043 19.088 36.7683 18.816 37.3443 18.816C37.6963 18.816 37.9523 18.928 38.1123 19.152C38.4963 18.416 38.9123 17.68 39.3603 16.944C39.8083 16.208 40.2563 15.456 40.7043 14.688C41.2163 13.856 41.8083 12.944 42.4803 11.952C43.1843 10.928 43.9843 10.032 44.8803 9.264C45.7763 8.464 46.7523 8.016 47.8083 7.92C47.9363 7.888 48.0643 7.872 48.1923 7.872C48.3523 7.872 48.4963 7.872 48.6243 7.872C48.9763 7.872 49.3443 7.888 49.7283 7.92C50.1123 7.952 50.4003 7.984 50.5923 8.016C50.6563 8.048 50.7043 8.144 50.7363 8.304C50.7683 8.464 50.6883 8.544 50.4963 8.544C50.3683 8.544 50.1123 8.64 49.7283 8.832C49.3443 8.992 49.1203 9.392 49.0563 10.032C48.9923 12.272 48.8483 14.512 48.6243 16.752C48.4323 18.992 48.1283 20.864 47.7123 22.368C47.5203 23.136 47.2163 23.968 46.8003 24.864C46.3843 25.76 45.8883 26.56 45.3123 27.264C44.7363 27.968 44.1283 28.448 43.4883 28.704C44.1283 28.704 44.8003 28.512 45.5043 28.128C46.2403 27.712 46.9123 27.216 47.5203 26.64C48.1603 26.064 48.6403 25.552 48.9603 25.104C49.6643 24.112 50.3043 23.072 50.8803 21.984C51.4883 20.864 51.9363 20 52.2243 19.392C52.3203 19.232 52.4323 19.152 52.5603 19.152C52.7203 19.152 52.8643 19.248 52.9923 19.44C53.1203 19.632 53.1843 19.84 53.1843 20.064C53.1843 20.128 53.1683 20.192 53.1363 20.256C53.1363 20.32 53.1203 20.384 53.0883 20.448C52.5123 21.6 51.8723 22.768 51.1683 23.952C50.4963 25.104 49.7123 26.176 48.8163 27.168C47.9203 28.128 46.8963 28.896 45.7443 29.472C44.5923 30.048 43.2483 30.336 41.7123 30.336ZM38.5923 27.312C38.9443 27.312 39.2963 27.2 39.6483 26.976C40.0003 26.752 40.2883 26.4 40.5123 25.92C40.9923 24.864 41.4243 23.648 41.8083 22.272C42.1923 20.896 42.5283 19.536 42.8163 18.192C43.1043 16.816 43.3443 15.6 43.5363 14.544C43.7603 13.456 43.9203 12.672 44.0163 12.192C43.5363 12.768 42.9443 13.584 42.2403 14.64C41.5683 15.696 40.9123 16.752 40.2723 17.808C39.6643 18.864 39.2003 19.712 38.8803 20.352C38.9123 21.088 38.6243 21.744 38.0163 22.32C37.4083 22.896 36.8803 23.488 36.4323 24.096V24.624C36.4323 24.752 36.4323 24.912 36.4323 25.104C36.4643 25.296 36.4963 25.472 36.5283 25.632C36.6883 26.144 36.9603 26.56 37.3443 26.88C37.7603 27.168 38.1763 27.312 38.5923 27.312ZM55.1362 30.384C53.9842 30.384 52.9442 30.064 52.0162 29.424C51.0882 28.752 50.6242 27.68 50.6242 26.208C50.6242 25.056 50.8482 23.648 51.2962 21.984C51.7442 20.32 52.3362 18.624 53.0722 16.896C53.8082 15.136 54.6082 13.552 55.4722 12.144H53.4082C53.2162 12.144 53.1202 12.064 53.1202 11.904C53.1202 11.776 53.2002 11.632 53.3602 11.472C53.5202 11.28 53.7122 11.152 53.9362 11.088C54.4482 10.928 55.1042 10.64 55.9042 10.224C56.7362 9.776 57.6002 9.264 58.4962 8.688C59.3922 8.112 60.2402 7.536 61.0402 6.96C61.8402 6.384 62.4802 5.888 62.9602 5.472C63.2482 5.216 63.5522 5.04 63.8722 4.944C64.2242 4.848 64.5602 4.8 64.8802 4.8C65.4242 4.8 65.8402 4.896 66.1282 5.088C66.4162 5.28 66.4162 5.472 66.1282 5.664C65.8722 5.824 65.5202 6.224 65.0722 6.864C64.6242 7.504 64.1602 8.208 63.6802 8.976C63.2322 9.744 62.8322 10.432 62.4802 11.04H66.1282C66.1922 11.04 66.2242 11.088 66.2242 11.184C66.2242 11.344 66.1602 11.552 66.0322 11.808C65.9042 12.032 65.7762 12.144 65.6482 12.144H61.8562C61.2162 13.264 60.5122 14.544 59.7442 15.984C58.9762 17.424 58.2402 18.896 57.5362 20.4C56.8642 21.872 56.3042 23.248 55.8562 24.528C55.4082 25.776 55.1842 26.768 55.1842 27.504C55.1842 28.304 55.5522 28.704 56.2882 28.704C57.0562 28.704 57.9202 28.336 58.8802 27.6C59.6802 26.928 60.4322 26.096 61.1362 25.104C61.8082 24.176 62.4002 23.216 62.9122 22.224C63.4562 21.232 63.9042 20.384 64.2562 19.68C64.3842 19.456 64.5602 19.344 64.7842 19.344C65.0082 19.344 65.1842 19.44 65.3122 19.632C65.4722 19.792 65.4882 20 65.3602 20.256C64.8802 21.216 64.2722 22.336 63.5362 23.616C62.8002 24.896 62.0162 26.064 61.1842 27.12C60.5122 27.952 59.8562 28.592 59.2162 29.04C58.6082 29.456 57.9522 29.776 57.2482 30C56.5762 30.256 55.8722 30.384 55.1362 30.384ZM69.7717 30.72C67.4357 30.72 65.7397 30.192 64.6837 29.136C63.6597 28.08 63.1477 26.688 63.1477 24.96C63.1477 23.648 63.4197 22.208 63.9637 20.64C64.3797 19.36 64.9397 18.064 65.6437 16.752C66.3477 15.408 67.1637 14.176 68.0917 13.056C69.0197 11.904 70.0437 10.992 71.1637 10.32C72.2837 9.616 73.4677 9.264 74.7157 9.264C76.3157 9.264 77.6117 9.52 78.6037 10.032C79.6277 10.512 80.1397 11.312 80.1397 12.432C80.1397 13.264 79.8037 14.304 79.1317 15.552C78.2357 17.28 76.9237 18.704 75.1957 19.824C73.4677 20.944 71.5317 21.584 69.3877 21.744C68.9077 23.056 68.6197 24.128 68.5237 24.96C68.4917 25.12 68.4757 25.28 68.4757 25.44C68.4757 25.568 68.4757 25.712 68.4757 25.872C68.4757 26.928 68.7157 27.696 69.1957 28.176C69.6757 28.624 70.2677 28.848 70.9717 28.848C72.2837 28.848 73.4357 28.512 74.4277 27.84C75.4197 27.168 76.2837 26.32 77.0197 25.296C77.7877 24.272 78.4437 23.248 78.9877 22.224C79.3077 21.648 79.5797 21.12 79.8037 20.64C80.0277 20.128 80.2037 19.76 80.3317 19.536C80.4917 19.28 80.6677 19.152 80.8597 19.152C81.0517 19.152 81.2277 19.264 81.3877 19.488C81.5477 19.68 81.5637 19.904 81.4357 20.16C81.0197 20.992 80.4437 22.096 79.7077 23.472C78.9717 24.848 78.1397 26.064 77.2117 27.12C76.1877 28.336 75.0837 29.248 73.8997 29.856C72.7477 30.432 71.3717 30.72 69.7717 30.72ZM70.0117 20.352C71.4517 19.808 72.7157 18.832 73.8037 17.424C74.9237 16.016 75.6757 14.464 76.0597 12.768C76.0917 12.608 76.1077 12.464 76.1077 12.336C76.1397 12.208 76.1557 12.08 76.1557 11.952C76.1557 11.312 75.9637 10.992 75.5797 10.992C75.2597 10.992 74.9237 11.216 74.5717 11.664C74.0597 12.272 73.5157 13.104 72.9397 14.16C72.3637 15.184 71.8517 16.192 71.4037 17.184C70.9557 18.176 70.6197 18.928 70.3957 19.44L70.0117 20.352ZM98.7817 30.384C97.1497 30.384 96.0457 29.936 95.4697 29.04C94.8937 28.144 94.6057 27.104 94.6057 25.92C94.6057 25.056 94.7017 24.192 94.8937 23.328C95.0857 22.464 95.2937 21.696 95.5177 21.024C95.7417 20.352 95.9017 19.888 95.9977 19.632C96.3817 18.48 96.7817 17.376 97.1977 16.32C97.6457 15.232 97.9817 14.48 98.2057 14.064C98.1097 14.224 97.7577 14.688 97.1497 15.456C96.5417 16.224 95.8217 17.184 94.9897 18.336C94.1897 19.456 93.3897 20.656 92.5897 21.936C91.7897 23.184 91.1177 24.4 90.5737 25.584C90.0617 26.736 89.8057 27.728 89.8057 28.56C89.8057 29.136 89.9337 29.552 90.1897 29.808C90.2857 29.904 90.3337 29.984 90.3337 30.048C90.3337 30.208 90.1577 30.256 89.8057 30.192C89.0697 30.064 88.3497 29.936 87.6457 29.808C86.9417 29.648 86.3497 29.344 85.8697 28.896C85.4217 28.416 85.1977 27.632 85.1977 26.544C85.1977 25.68 85.4217 24.64 85.8697 23.424C86.3177 22.176 86.8457 20.896 87.4537 19.584C88.0617 18.272 88.5897 17.056 89.0377 15.936C89.1337 15.68 89.2937 15.296 89.5177 14.784C89.7417 14.24 89.9657 13.68 90.1897 13.104C90.4457 12.496 90.6377 11.968 90.7657 11.52C90.8937 11.04 90.9257 10.72 90.8617 10.56C90.7977 10.432 90.7657 10.336 90.7657 10.272C90.7657 9.888 91.0217 9.696 91.5337 9.696C92.0457 9.696 92.5577 9.776 93.0697 9.936C93.6137 10.064 94.0937 10.288 94.5097 10.608C94.9577 10.928 95.3097 11.312 95.5657 11.76C95.8217 12.208 95.9497 12.704 95.9497 13.248C95.9497 13.6 95.8697 14.016 95.7097 14.496C95.6457 14.72 95.5017 15.024 95.2777 15.408C95.0857 15.76 94.8777 16.144 94.6537 16.56C94.4297 16.976 94.1897 17.408 93.9337 17.856C93.7097 18.304 93.6297 18.544 93.6937 18.576C94.4937 17.168 95.3577 15.856 96.2857 14.64C97.2457 13.392 98.1097 12.32 98.8777 11.424C99.6777 10.528 100.206 9.872 100.462 9.456C100.718 9.264 101.134 9.168 101.71 9.168C102.382 9.168 103.07 9.376 103.774 9.792C104.478 10.208 104.83 10.96 104.83 12.048C104.83 12.944 104.51 14.032 103.87 15.312C102.494 17.936 101.438 20.304 100.702 22.416C99.9657 24.496 99.5977 26.032 99.5977 27.024C99.5977 27.728 99.7897 28.08 100.174 28.08C100.622 28.08 101.134 27.792 101.71 27.216C102.286 26.64 102.83 25.952 103.342 25.152C104.046 24.128 104.686 23.04 105.262 21.888C105.87 20.736 106.286 19.936 106.51 19.488C106.606 19.296 106.75 19.2 106.942 19.2C107.134 19.2 107.31 19.312 107.47 19.536C107.662 19.728 107.694 19.952 107.566 20.208C107.342 20.656 107.006 21.28 106.558 22.08C106.142 22.88 105.662 23.744 105.118 24.672C104.574 25.568 103.982 26.432 103.342 27.264C102.638 28.224 101.934 28.992 101.23 29.568C100.526 30.112 99.7097 30.384 98.7817 30.384ZM111.768 30.336C109.72 30.336 108.12 30 106.968 29.328C105.816 28.656 105.24 27.36 105.24 25.44C105.24 24.096 105.448 22.688 105.864 21.216C106.312 19.712 106.936 18.256 107.736 16.848C108.536 15.44 109.48 14.16 110.568 13.008C111.656 11.856 112.856 10.944 114.168 10.272C115.48 9.568 116.872 9.216 118.344 9.216C119.304 9.216 120.216 9.296 121.08 9.456C121.944 9.616 122.648 9.984 123.192 10.56C123.736 11.104 124.008 11.968 124.008 13.152C124.008 14.4 123.672 16.016 123 18C122.328 19.984 121.416 21.92 120.264 23.808C120.2 24.064 120.168 24.32 120.168 24.576C120.168 24.928 120.232 25.28 120.36 25.632C120.52 25.984 120.792 26.16 121.176 26.16C121.688 26.16 122.216 25.808 122.76 25.104C123.336 24.304 123.928 23.344 124.536 22.224C125.144 21.104 125.608 20.192 125.928 19.488C125.992 19.296 126.136 19.2 126.36 19.2C126.584 19.2 126.776 19.296 126.936 19.488C127.128 19.68 127.144 19.904 126.984 20.16C126.728 20.64 126.392 21.312 125.976 22.176C125.56 23.008 125.08 23.856 124.536 24.72C123.992 25.584 123.4 26.272 122.76 26.784C122.28 27.168 121.768 27.36 121.224 27.36C120.584 27.36 120.104 27.216 119.784 26.928C119.464 26.608 119.208 26.16 119.016 25.584C117.992 26.96 116.856 28.096 115.608 28.992C114.36 29.888 113.08 30.336 111.768 30.336ZM110.856 28.848C111.208 28.848 111.688 28.384 112.296 27.456C112.904 26.528 113.56 25.344 114.264 23.904C114.968 22.432 115.656 20.944 116.328 19.44C116.456 19.184 116.664 18.72 116.952 18.048C117.24 17.344 117.544 16.576 117.864 15.744C118.184 14.88 118.456 14.048 118.68 13.248C118.904 12.448 119.016 11.808 119.016 11.328C119.016 10.784 118.856 10.512 118.536 10.512C118.248 10.512 117.88 10.8 117.432 11.376C116.984 11.92 116.488 12.64 115.944 13.536C115.4 14.432 114.872 15.392 114.36 16.416C113.848 17.44 113.4 18.4 113.016 19.296C112.632 20.192 112.232 21.2 111.816 22.32C111.4 23.44 111.048 24.512 110.76 25.536C110.504 26.528 110.376 27.328 110.376 27.936C110.376 28.544 110.536 28.848 110.856 28.848ZM127.477 30.24C126.229 30.24 125.349 29.888 124.837 29.184C124.357 28.48 124.117 27.632 124.117 26.64C124.117 25.168 124.341 23.76 124.789 22.416C125.237 21.04 125.765 19.664 126.373 18.288C127.013 16.912 127.605 15.52 128.149 14.112C128.405 13.376 128.629 12.672 128.821 12C129.013 11.296 129.109 10.736 129.109 10.32C129.109 10 129.061 9.776 128.965 9.648V9.504C128.965 9.344 129.077 9.28 129.301 9.312C129.557 9.376 129.797 9.44 130.021 9.504C130.277 9.536 130.533 9.6 130.789 9.696C132.037 10.112 132.885 10.672 133.333 11.376C133.813 12.048 134.053 12.752 134.053 13.488C134.053 13.616 134.037 13.744 134.005 13.872C134.005 14 133.989 14.128 133.957 14.256C133.893 14.544 133.685 15.136 133.333 16.032C132.981 16.896 132.581 17.824 132.133 18.816C131.621 20 131.093 21.168 130.549 22.32C130.005 23.44 129.509 24.688 129.061 26.064C129.029 26.16 129.013 26.304 129.013 26.496C129.013 26.944 129.205 27.168 129.589 27.168C129.941 27.168 130.277 27.008 130.597 26.688C131.077 26.208 131.653 25.472 132.325 24.48C132.997 23.456 133.829 22 134.821 20.112C135.461 18.928 135.957 17.856 136.309 16.896C136.693 15.904 137.013 14.928 137.269 13.968C137.365 13.52 137.445 13.088 137.509 12.672C137.573 12.224 137.605 11.84 137.605 11.52C137.605 11.136 137.557 10.88 137.461 10.752C137.397 10.624 137.381 10.512 137.413 10.416C137.445 10.32 137.541 10.288 137.701 10.32C138.533 10.384 139.333 10.592 140.101 10.944C140.901 11.264 141.557 11.712 142.069 12.288C142.581 12.864 142.837 13.584 142.837 14.448C142.837 14.768 142.789 15.104 142.693 15.456C142.597 15.808 142.389 16.416 142.069 17.28C141.749 18.144 141.365 19.12 140.917 20.208C140.501 21.296 140.101 22.368 139.717 23.424C139.333 24.48 139.045 25.392 138.853 26.16C138.821 26.288 138.789 26.4 138.757 26.496C138.757 26.56 138.757 26.624 138.757 26.688C138.757 27.072 138.885 27.264 139.141 27.264C139.333 27.264 139.605 27.12 139.957 26.832C140.437 26.384 141.045 25.632 141.781 24.576C142.549 23.488 143.429 22 144.421 20.112C145.157 18.736 145.733 17.376 146.149 16.032C146.597 14.688 146.821 13.504 146.821 12.48C146.821 11.328 146.517 10.464 145.909 9.888C145.781 9.76 145.717 9.696 145.717 9.696C145.717 9.632 145.909 9.584 146.293 9.552C146.453 9.552 146.613 9.552 146.773 9.552C146.965 9.52 147.125 9.504 147.253 9.504C148.949 9.504 150.181 9.792 150.949 10.368C151.749 10.912 152.149 11.568 152.149 12.336C152.149 12.496 152.117 12.704 152.053 12.96C151.861 13.792 151.477 14.816 150.901 16.032C150.357 17.216 149.701 18.464 148.933 19.776C148.389 20.704 148.005 21.52 147.781 22.224C147.589 22.896 147.493 23.536 147.493 24.144C147.493 25.36 147.829 25.968 148.501 25.968C149.045 25.968 149.589 25.616 150.133 24.912C150.677 24.272 151.221 23.44 151.765 22.416C152.341 21.392 152.821 20.48 153.205 19.68C153.301 19.456 153.477 19.344 153.733 19.344C153.925 19.344 154.101 19.44 154.261 19.632C154.421 19.792 154.437 20 154.309 20.256C154.149 20.576 153.973 20.928 153.781 21.312C153.621 21.664 153.429 22.032 153.205 22.416C152.885 22.992 152.501 23.664 152.053 24.432C151.605 25.2 151.061 25.888 150.421 26.496C149.813 27.072 149.077 27.36 148.213 27.36C147.509 27.36 146.981 27.072 146.629 26.496C146.277 25.92 146.101 25.28 146.101 24.576C146.101 24.448 146.101 24.32 146.101 24.192C146.101 24.064 146.117 23.936 146.149 23.808C145.317 24.96 144.373 26.032 143.317 27.024C142.293 27.984 141.237 28.768 140.149 29.376C139.093 29.952 138.069 30.24 137.077 30.24C135.925 30.24 135.093 29.872 134.581 29.136C134.101 28.368 133.861 27.44 133.861 26.352C133.861 26.064 133.877 25.776 133.909 25.488C133.973 25.168 134.021 24.864 134.053 24.576C132.965 26.208 131.877 27.568 130.789 28.656C129.701 29.712 128.597 30.24 127.477 30.24Z" fill="white"/>
</svg>
